<svg width="512" height="512" viewBox="0 0 512 512" fill="none" xmlns="http://www.w3.org/2000/svg">
<g clip-path="url(#clip0_534_125)">
<circle cx="256" cy="256" r="256" fill="#F8F5F0"/>
<path d="M215.437 355.8H115.048V354.154C118.34 354.154 125.252 353.167 126.897 352.508C133.809 349.875 136.113 348.229 138.088 339.343C139.734 332.43 139.405 321.898 139.405 312.682V179.707C139.405 173.782 139.405 163.25 138.747 157.983C138.088 151.071 136.113 149.096 132.822 147.122C129.86 145.147 117.352 143.83 114.39 143.501V141.855C121.96 141.526 148.292 140.209 162.445 138.893C170.674 138.235 186.473 136.918 189.435 136.918C191.081 136.918 191.739 137.576 191.739 139.222C191.739 144.159 191.081 151.4 191.081 159.958V312.682C191.081 321.898 190.752 332.43 192.397 339.343C194.372 348.229 197.005 349.217 203.917 352.179C206.551 353.167 213.133 353.825 215.437 354.154V355.8ZM392.25 290.3C392.25 330.785 361.969 360.408 300.419 360.408C255.655 360.408 235.577 335.064 235.577 313.669C235.577 299.187 244.464 288.654 258.288 288.654C274.087 288.654 282.974 298.858 282.974 313.34C282.974 319.594 281.328 325.189 280.012 330.456C279.353 334.076 278.695 340.659 279.353 343.621C280.67 350.863 285.936 354.154 292.19 354.154C316.218 354.154 335.637 323.544 335.637 283.388C335.637 254.423 323.788 244.878 301.735 244.878C297.786 244.878 289.557 246.523 283.632 250.144L272.771 256.398L270.137 252.119L290.215 240.27C312.268 226.775 324.776 203.735 324.776 175.428C324.776 150.742 318.522 143.172 300.09 143.172C285.278 143.172 273.1 155.021 273.1 178.061C273.1 192.873 280.999 203.076 290.544 203.076C300.419 203.076 304.039 201.431 309.306 193.531L311.939 194.848C305.685 210.976 294.494 224.142 274.745 224.142C253.351 224.142 240.843 208.672 240.843 189.91C240.843 157.983 276.062 135.272 310.622 135.272C357.69 135.272 377.439 151.071 377.439 178.39C377.439 206.368 350.12 224.8 308.647 235.333V236.32C347.487 237.637 392.25 252.777 392.25 290.3Z" fill="black"/>
</g>
<defs>
<clipPath id="clip0_534_125">
<rect width="512" height="512" fill="white"/>
</clipPath>
</defs>
</svg>
